PathFileType	4	(X/Y/Z)	Walk7.trc
DataRate	CameraRate	NumFrames	NumMarkers	Units	OrigDataRate	OrigDataStartFrame	OrigNumFrames
200.000000	200.000000	4	59	mm	200.000000	747	787
Frame#	Times		LCAR		LUA1		LACR1		RTH3		RCAR		RUA1		RACR1		LTB2		RTH1		RFHD		RWRR		RTH2		T10		RPSI		RElbowM		STRN		RBack		LMT5		LLFC		C7		RASI		LTB1		RTH4		LMT1		LPSI		LTB3		LFHD		LTB4		LToe		LLMAL		LTH3		LASI		LElbowM		LTH4		CLAV		RFA1		RElbow		RBHD		LTH1		RWRU		RLFC		LCAL		LFA1		RTB2		LWRR		LTH2		LBHD		LElbow		RTB1		RMT5		RTB3		LWRU		RTB4		RMT1		RToe		RMMAL		RLMAL		RCAL		LMMAL
			X1	Y1	Z1	X2	Y2	Z2	X3	Y3	Z3	X4	Y4	Z4	X5	Y5	Z5	X6	Y6	Z6	X7	Y7	Z7	X8	Y8	Z8	X9	Y9	Z9	X10	Y10	Z10	X11	Y11	Z11	X12	Y12	Z12	X13	Y13	Z13	X14	Y14	Z14	X15	Y15	Z15	X16	Y16	Z16	X17	Y17	Z17	X18	Y18	Z18	X19	Y19	Z19	X20	Y20	Z20	X21	Y21	Z21	X22	Y22	Z22	X23	Y23	Z23	X24	Y24	Z24	X25	Y25	Z25	X26	Y26	Z26	X27	Y27	Z27	X28	Y28	Z28	X29	Y29	Z29	X30	Y30	Z30	X31	Y31	Z31	X32	Y32	Z32	X33	Y33	Z33	X34	Y34	Z34	X35	Y35	Z35	X36	Y36	Z36	X37	Y37	Z37	X38	Y38	Z38	X39	Y39	Z39	X40	Y40	Z40	X41	Y41	Z41	X42	Y42	Z42	X43	Y43	Z43	X44	Y44	Z44	X45	Y45	Z45	X46	Y46	Z46	X47	Y47	Z47	X48	Y48	Z48	X49	Y49	Z49	X50	Y50	Z50	X51	Y51	Z51	X52	Y52	Z52	X53	Y53	Z53	X54	Y54	Z54	X55	Y55	Z55	X56	Y56	Z56	X57	Y57	Z57	X58	Y58	Z58	X59	Y59	Z59

747	3.735	1222.3	826.26	-299.2	1075.5	1206.8	-274.11	1072	1385.9	-176.77	1196.2	593.46	179.92	1034	774.02	271.98	1031.8	1198.7	227.87	1061.4	1381	133.9	1061.6	253.86	-109.26	1128.8	749.64	211.78	1187.5	1601.2	14.876	1028.3	829.66	224.79	1216.1	696.11	193.34	928.04	1155	-30.052	939.6	972.09	22.121	959.54	1056	156.06	1193.6	1247.5	-9.9753	938.49	1325.3	81.934	1094.7	25.373	-89.856	1070.8	480.48	-132.56	992.37	1423.7	-18.212	1175	990.07	139.95	1095.6	335.94	-50.227	1161.8	670.42	194.3	1120.1	30.535	-7.4508	945.43	970.25	-67.218	1062.2	167.17	-52.531	1176.8	1600.9	-79.069	1077.5	251.38	-50.043	1192	24.577	-31.072	1013.6	59.476	-78.699	1083.5	601.54	-166.17	1198.2	972.07	-147.99	1016.1	1047.8	-237.83	1093.8	680.94	-192.05	1133.5	1348.1	-21.621	966.11	936.05	268.28	974.86	1082.2	250.05	1035.6	1559.1	51.932	1104.1	759.64	-227.34	976.32	827.05	273.54	1225.6	517.21	161.2	944.16	35.544	-50.68	1096.4	947.04	-315.12	1149	302.16	151.09	1193.2	865.8	-258.92	1147.4	684.9	-173.65	1022.4	1552.1	-90.88	1054.2	1080.7	-306.16	1230.1	353.72	107.42	1091.1	66.048	140.94	1128.7	213.63	98.589	1149.8	842.09	-313.73	1179.8	282.42	100.05	1134.1	57.605	77.018	1181.9	46.372	121.71	1073.8	126.11	35.238	1032.9	134.67	111.22	968.58	123.16	61.642	1017.1	64.506	4.9024
748	3.74	1234.4	828.89	-298.32	1083	1206.9	-274.46	1078.3	1385.7	-176.64	1204.2	594.33	179.63	1038	774.06	272.39	1036.8	1198.3	227.67	1066.8	1380.6	133.88	1062.3	253.93	-109.23	1135.4	749.61	212.09	1193.3	1601	15.215	1032.7	829.21	224.79	1223	696.95	193.75	933.84	1154.9	-30.462	945.05	971.75	22.806	964.84	1055.7	155.63	1199.4	1247	-9.4999	943.95	1325	81.535	1095	25.384	-89.438	1072.2	480.53	-132.69	998.27	1423.3	-18.318	1181.1	989.79	139.48	1096.5	335.9	-50.094	1169	670.94	194.31	1120.4	30.728	-7.4126	950.53	970.07	-66.734	1062.6	167.23	-52.437	1182.5	1600.6	-78.61	1078.3	251.44	-49.982	1192	24.571	-31.156	1013.6	59.591	-78.697	1086	601.38	-166.41	1203.2	971.55	-148.41	1024.1	1047.4	-239.14	1097.3	681.28	-191.65	1139.4	1347.7	-21.538	969.82	935.69	266.21	979.19	1081.9	249.64	1041.5	1558.6	52.227	1108.9	759.38	-227.32	980.02	826.62	272.77	1233.9	518.08	160.75	943.3	36.851	-50.675	1106.8	947.73	-315.45	1162.5	300.43	150.85	1204.2	868.01	-258.24	1150.9	684.03	-173.64	1028.3	1551.6	-90.427	1062.8	1080.8	-306.86	1241.9	354.52	106.97	1111.9	63.785	142.07	1145	211.09	98.217	1161.8	842.85	-313.1	1193.8	281.55	99.823	1155.3	55.552	76.333	1203.7	46.884	121.49	1093.9	121.5	35.536	1051.4	129.34	111.32	987.44	115.46	61.587	1015.5	64.408	5.6358
749	3.745	1246.2	831.33	-297.46	1090.5	1207	-274.57	1084.5	1385.4	-176.44	1212	595.1	179.35	1041.6	773.54	272.06	1041.4	1197.8	227.59	1072.3	1380.2	134.07	1063	253.99	-109.17	1142.1	749.79	212.52	1199	1600.6	15.494	1037.4	828.83	224.88	1230.1	697.8	194.13	939.47	1154.6	-30.511	950.5	971.29	23.71	970.12	1055.3	155.2	1204.8	1246.3	-9.015	949.48	1324.6	81.267	1095.2	25.247	-89.223	1073.7	480.6	-132.76	1004	1423.1	-18.33	1187	989.43	139.19	1097.5	336	-50.053	1176.3	671.32	194.39	1120.5	30.745	-7.3545	955.81	969.81	-66.136	1062.8	167.24	-52.453	1188.3	1600.4	-78.326	1078.9	251.46	-49.931	1191.9	25.152	-31.723	1013.6	59.889	-78.727	1088.1	601.64	-166.03	1208.2	970.95	-148.74	1032.2	1047	-240.4	1101.1	680.48	-191.6	1145.1	1347.2	-21.329	973.51	935.33	266.2	983.38	1081.5	249.24	1047.2	1558.1	52.582	1113.6	759.01	-227.32	984.03	826.22	271.73	1241.8	518.92	160.07	943.24	37.08	-50.294	1117.2	948.32	-315.74	1175.8	298.57	150.6	1214.7	869.98	-257.56	1154.2	683.05	-173.6	1034.1	1551.2	-90.227	1071.3	1080.9	-307.59	1253.5	355.19	106.47	1133	61.089	142.72	1161.4	208.71	97.902	1173.5	844.09	-312.63	1207.8	280.78	99.362	1176.6	53.529	75.634	1225.5	47.349	121.8	1113.2	117.14	35.564	1070.3	124	111.46	1006.5	106.96	61.621	1016.3	66.199	4.9002
750	3.75	1258.1	833.81	-296.59	1098	1206.9	-274.83	1090.7	1385.1	-176.27	1219.7	595.73	179	1045.3	773.04	272.04	1046.1	1197.3	227.53	1077.8	1379.7	134.16	1063.8	254.01	-109.08	1148.7	749.97	213.07	1204.7	1600.2	15.897	1042.3	828.36	224.86	1237	698.43	194.4	945.15	1154.2	-30.664	955.96	970.9	24.421	975.16	1054.9	154.75	1210.5	1245.8	-8.7391	954.87	1324.4	80.938	1095.7	24.931	-89.125	1075.3	480.65	-132.96	1010	1422.7	-18.465	1192.6	988.97	138.69	1098.5	335.94	-50.11	1183.5	671.58	194.47	1121.8	29.725	-7.0076	961.1	969.25	-65.299	1062.9	167.17	-52.538	1193.9	1600	-78.011	1079.5	251.41	-49.846	1191.9	24.922	-31.675	1013.5	60.185	-78.77	1090.3	601.89	-165.94	1213.3	970.31	-149.09	1040.6	1046.6	-241.68	1103.5	681.26	-192	1150.9	1346.7	-21.25	977.36	935.01	266.34	987.57	1081	248.66	1053	1557.5	52.786	1118.1	758.56	-227.28	987.71	825.42	270.69	1249.5	519.74	159.25	943.51	37.068	-50.152	1127.4	948.9	-315.81	1189.2	296.72	150.21	1225.3	871.87	-256.9	1157.7	682.28	-173.56	1039.8	1550.9	-90.004	1079.9	1081	-308.23	1264.9	355.76	105.92	1154.2	58.051	142.61	1178	205.84	97.004	1185.2	845.4	-312.07	1221.8	280.07	98.805	1198.2	51.488	75.3	1247.2	46.792	121.79	1133.6	111.49	35.677	1089.4	118.7	111.39	1027.1	99.719	61.774	1016.6	66.598	4.3948
